<?xml version="1.0" standalone="no"?>
<!DOCTYPE svg PUBLIC "-//W3C//DTD SVG 20010904//EN"
 "http://www.w3.org/TR/2001/REC-SVG-20010904/DTD/svg10.dtd">
<svg width="186" height="66" version="1.0" xmlns="http://www.w3.org/2000/svg"
 width="90.000000pt" height="18.000000pt" viewBox="0 0 90.000000 18.000000"
 preserveAspectRatio="xMidYMid meet">

<g transform="translate(0.000000,18.000000) scale(0.100000,-0.100000)"
fill="#000000" stroke="none">
<path d="M270 145 c-5 -14 -13 -37 -16 -51 -8 -32 -25 -26 -44 14 -20 42 -31
41 -55 -4 -11 -21 -33 -45 -50 -54 -16 -8 -32 -16 -34 -18 -3 -1 1 -8 7 -14
18 -18 170 -20 203 -3 38 20 71 77 67 117 -3 29 -7 33 -36 36 -27 3 -34 -1
-42 -23z"/>
</g>
</svg>
